<?xml version="1.0" encoding="UTF-8" standalone="no"?>
<svg width="64px" height="64px" viewBox="0 0 64 64" version="1.1" xmlns="http://www.w3.org/2000/svg" xmlns:xlink="http://www.w3.org/1999/xlink" xmlns:sketch="http://www.bohemiancoding.com/sketch/ns">
    <!-- Generator: Sketch 3.3.3 (12081) - http://www.bohemiancoding.com/sketch -->
    <title>insta</title>
    <desc>Created with Sketch.</desc>
    <defs></defs>
    <g id="Page-1" stroke="none" stroke-width="1" fill="none" fill-rule="evenodd" sketch:type="MSPage">
        <path d="M53.375,0 L10.625,0 C4.781,0 0,4.781 0,10.625 L0,53.375 C0,59.219 4.781,64 10.625,64 L53.375,64 C59.219,64 64,59.219 64,53.375 L64,10.625 C64,4.781 59.219,0 53.375,0 L53.375,0 Z M20.488,28 L43.513,28 C43.95,29.254 44.188,30.599 44.188,32 C44.188,38.72 38.721,44.188 32,44.188 C25.279,44.188 19.812,38.721 19.812,32 C19.812,30.599 20.05,29.254 20.487,28 L20.488,28 Z M56,28.003 L56,52 C56,54.2 54.2,56 52,56 L12,56 C9.8,56 8,54.2 8,52 L8,28 L14.257,28 C13.967,29.288 13.813,30.626 13.813,32 C13.813,42.029 21.972,50.188 32.001,50.188 C42.03,50.188 50.189,42.029 50.189,32 C50.189,30.626 50.035,29.288 49.745,28 L56.002,28.003 L56,28.003 Z M56,14 C56,15.1 55.1,16 54,16 L50,16 C48.9,16 48,15.1 48,14 L48,10 C48,8.9 48.9,8 50,8 L54,8 C55.1,8 56,8.9 56,10 L56,14 L56,14 Z" id="insta" fill="#333333" sketch:type="MSShapeGroup"></path>
    </g>
</svg>